<svg width="45" height="26" viewBox="0 0 45 26" fill="none" xmlns="http://www.w3.org/2000/svg">
<path d="M0 26V0H3.8922V26H0Z" fill="white"/>
<path d="M11.6497 26H4.56926V0H11.6497L12.9748 1.30408V24.6552L11.6497 26ZM9.12396 24.1254V1.91536H8.42005V24.1254H9.12396Z" fill="white"/>
<path d="M22.0324 1.30408V24.6552L20.7074 26H14.9519L13.6269 24.6552V1.30408L14.9519 0H20.7074L22.0324 1.30408ZM18.1816 24.1254V1.91536H17.5191V24.1254H18.1816Z" fill="white"/>
<path d="M27.2393 24.1254V26H24.0096L22.6845 24.6552V0H26.5767V24.1254H27.2393Z" fill="white"/>
<path d="M32.0916 24.1254V13.0408L33.3752 11.7367H35.9424V24.6552L34.6173 26H28.8619L27.5369 24.6552V1.30408L28.8619 0H34.6173L35.9424 1.30408V11.1254H33.3752L32.0916 9.82132V1.91536H31.4291V24.1254H32.0916Z" fill="white"/>
<path d="M40.4867 7.94671L45 12.5517V24.6144L43.675 26H37.9195L36.5945 24.6144V12.5517H38.7062L40.4867 14.3448V24.1254H41.1492V14.0596L36.5945 9.45455V1.30408L37.9195 0H43.675L45 1.30408V9.21003L42.6812 9.25078L41.1492 7.66144V1.91536H40.4867V7.94671Z" fill="white"/>
</svg>
