<svg width="26" height="26" viewBox="0 0 26 26" fill="none" xmlns="http://www.w3.org/2000/svg">
<path d="M17.9741 8.1575C17.979 8.1575 17.9855 8.1575 17.992 8.1575C18.1618 8.1575 18.3194 8.21031 18.4486 8.30131L18.4462 8.29969C18.5404 8.38175 18.6038 8.49712 18.6193 8.62712V8.62956C18.6355 8.72868 18.6444 8.84243 18.6444 8.95862C18.6444 9.01143 18.6428 9.06343 18.6388 9.11543V9.10812C18.4559 11.0329 17.6629 15.7007 17.2599 17.8555C17.0893 18.7679 16.7537 19.0734 16.4288 19.1027C15.7227 19.1685 15.1864 18.6363 14.5023 18.1878C13.4314 17.485 12.8261 17.0479 11.7869 16.3629C10.5853 15.5724 11.3644 15.1361 12.0486 14.4259C12.2281 14.2391 15.3408 11.4075 15.4017 11.1507C15.405 11.1353 15.4066 11.1182 15.4066 11.1004C15.4066 11.037 15.3831 10.9793 15.3449 10.9354C15.3026 10.9078 15.2498 10.8924 15.1946 10.8924C15.158 10.8924 15.1231 10.8997 15.0906 10.9119L15.0922 10.9111C14.9849 10.9354 13.2744 12.0659 9.96044 14.3024C9.59888 14.5876 9.14225 14.768 8.645 14.7891H8.64013C7.93569 14.7038 7.29625 14.547 6.68931 14.3236L6.74944 14.3431C5.98731 14.0944 5.382 13.9636 5.434 13.5427C5.46163 13.3239 5.76333 13.0999 6.33913 12.8708C9.88596 11.3254 12.2511 10.3068 13.4347 9.815C14.7404 9.12193 16.2541 8.55156 17.8458 8.18187L17.9733 8.15668L17.9741 8.1575ZM12.9431 0.832809C6.19775 0.849059 0.735313 6.32125 0.735313 13.0691C0.735313 19.8266 6.21319 25.3053 12.9716 25.3053C19.7299 25.3053 25.2078 19.8274 25.2078 13.0691C25.2078 6.32125 19.7454 0.849059 13.0016 0.832809H13C12.981 0.832809 12.9621 0.832809 12.9431 0.832809Z" fill="white"/>
</svg>
