<svg width="27" height="27" viewBox="0 0 27 27" fill="none" xmlns="http://www.w3.org/2000/svg">
<path d="M22.6 4.26998C21.4087 3.06978 19.9907 2.11843 18.4286 1.47121C16.8664 0.823986 15.191 0.493851 13.5 0.499977C11.2395 0.502187 9.01903 1.0983 7.06128 2.22862C5.10353 3.35894 3.47713 4.98379 2.34493 6.94044C1.21273 8.8971 0.614497 11.1169 0.61011 13.3775C0.605739 15.6382 1.19539 17.8602 2.32 19.8212L0.5 26.5L7.325 24.7125C9.20959 25.7609 11.3272 26.3198 13.4837 26.3375C16.912 26.3377 20.2015 24.9835 22.6361 22.5701C25.0708 20.1568 26.4537 16.8793 26.4837 13.4512C26.4724 11.7406 26.1233 10.049 25.4569 8.47354C24.7905 6.89803 23.8196 5.46955 22.6 4.26998ZM13.5 24.1112C11.5788 24.1125 9.69264 23.5961 8.04 22.6162L7.65 22.3725L3.60375 23.445L4.67625 19.4962L4.41625 19.09C3.03378 16.8584 2.51783 14.1971 2.96613 11.6104C3.41444 9.02385 4.79587 6.69149 6.84871 5.05523C8.90158 3.41895 11.4832 2.59242 14.1047 2.73222C16.7261 2.87201 19.2054 3.96841 21.0725 5.81373C23.1135 7.80954 24.2819 10.5319 24.3225 13.3862C24.2968 16.2396 23.1452 18.9673 21.1183 20.976C19.0916 22.9845 16.3535 24.1114 13.5 24.1112ZM19.3662 16.0837C19.0413 15.9212 17.465 15.1412 17.1725 15.0437C16.88 14.9462 16.6525 14.8812 16.4413 15.2062C16.1234 15.6419 15.7815 16.0595 15.4175 16.4575C15.2388 16.685 15.0437 16.7012 14.7188 16.4575C12.8658 15.7253 11.322 14.3765 10.3475 12.6387C10.0063 12.07 10.6725 12.1025 11.29 10.8837C11.3357 10.7958 11.3594 10.6983 11.3594 10.5994C11.3594 10.5004 11.3357 10.4029 11.29 10.315C11.29 10.1525 10.5587 8.55998 10.2987 7.92623C10.0387 7.29248 9.77875 7.38998 9.5675 7.37373H8.93375C8.76954 7.37625 8.60777 7.4138 8.45925 7.48385C8.31072 7.55391 8.17887 7.65487 8.0725 7.77998C7.70788 8.13452 7.42349 8.5631 7.23848 9.03682C7.05348 9.51054 6.97216 10.0184 7 10.5262C7.10189 11.7419 7.5597 12.9005 8.31625 13.8575C9.70108 15.9307 11.5989 17.6101 13.825 18.7325C14.9926 19.414 16.3494 19.699 17.6925 19.545C18.1397 19.4563 18.5633 19.2744 18.9356 19.0112C19.3081 18.7481 19.6209 18.4094 19.8538 18.0175C20.0695 17.5391 20.1375 17.0072 20.0488 16.49C19.9025 16.3275 19.6912 16.2462 19.3662 16.0837Z" fill="white"/>
</svg>
